HIERARCHY
ROOT root
{
	OFFSET 0.000000 0.000000 0.000000
	CHANNELS 6 Xposition Yposition Zposition Zrotation Yrotation Xrotation
	JOINT lhip
	{
		OFFSET 0.058581 -0.082280 -0.017664
		CHANNELS 3 Zrotation Yrotation Xrotation
		JOINT lknee
		{
			OFFSET 0.043451 -0.386469 0.008037
			CHANNELS 3 Zrotation Yrotation Xrotation
			JOINT lankle
			{
				OFFSET -0.014790 -0.426874 -0.037428
				CHANNELS 3 Zrotation Yrotation Xrotation
				JOINT ltoe
				{
					OFFSET 0.041054 -0.060286 0.122042
					CHANNELS 3 Zrotation Yrotation Xrotation
					End Site
					{
						OFFSET 0.000000 0.000000 0.000000
					}
				}
			}
		}
	}
	JOINT rhip
	{
		OFFSET -0.060310 -0.090513 -0.013543
		CHANNELS 3 Zrotation Yrotation Xrotation
		JOINT rknee
		{
			OFFSET -0.043257 -0.383688 -0.004843
			CHANNELS 3 Zrotation Yrotation Xrotation
			JOINT rankle
			{
				OFFSET 0.019056 -0.420046 -0.034562
				CHANNELS 3 Zrotation Yrotation Xrotation
				JOINT rtoe
				{
					OFFSET -0.034840 -0.062106 0.130323
					CHANNELS 3 Zrotation Yrotation Xrotation
					End Site
					{
						OFFSET 0.000000 0.000000 0.000000
					}
				}
			}
		}
	}
	JOINT lowerback
	{
		OFFSET 0.004439 0.124404 -0.038385
		CHANNELS 3 Zrotation Yrotation Xrotation
		JOINT upperback
		{
			OFFSET 0.004488 0.137956 0.026820
			CHANNELS 3 Zrotation Yrotation Xrotation
			JOINT chest
			{
				OFFSET -0.002265 0.056032 0.002855
				CHANNELS 3 Zrotation Yrotation Xrotation
				JOINT lowerneck
				{
					OFFSET -0.013390 0.211636 -0.033468
					CHANNELS 3 Zrotation Yrotation Xrotation
					JOINT upperneck
					{
						OFFSET 0.010113 0.088937 0.050410
						CHANNELS 3 Zrotation Yrotation Xrotation
						End Site
						{
							OFFSET 0.000000 0.000000 0.000000
						}
					}
				}
				JOINT lclavicle
				{
					OFFSET 0.071702 0.114000 -0.018898
					CHANNELS 3 Zrotation Yrotation Xrotation
					JOINT lshoulder
					{
						OFFSET 0.122921 0.045205 -0.019046
						CHANNELS 3 Zrotation Yrotation Xrotation
						JOINT lelbow
						{
							OFFSET 0.255332 -0.015649 -0.022946
							CHANNELS 3 Zrotation Yrotation Xrotation
							JOINT lwrist
							{
								OFFSET 0.265709 0.012698 -0.007375
								CHANNELS 3 Zrotation Yrotation Xrotation
								End Site
								{
									OFFSET 0.000000 0.000000 0.000000
								}
							}
						}
					}
				}
				JOINT rclavicle
				{
					OFFSET -0.082954 0.112472 -0.023707
					CHANNELS 3 Zrotation Yrotation Xrotation
					JOINT rshoulder
					{
						OFFSET -0.113228 0.046853 -0.008472
						CHANNELS 3 Zrotation Yrotation Xrotation
						JOINT relbow
						{
							OFFSET -0.260127 -0.014369 -0.031269
							CHANNELS 3 Zrotation Yrotation Xrotation
							JOINT rwrist
							{
								OFFSET -0.269108 0.006794 -0.006027
								CHANNELS 3 Zrotation Yrotation Xrotation
								End Site
								{
									OFFSET 0.000000 0.000000 0.000000
								}
							}
						}
					}
				}
			}
		}
	}
}
MOTION
Frames: 6
Frame Time: 0.033333
1.160931 1.152837 0.985566 -86.277712 2.253817 85.137932 -0.699809 -1.927541 7.252177 -2.626107 -17.540140 4.446883 6.081120 7.871444 -18.832217 0.000000 -0.000000 0.000000 3.753006 -2.285096 4.674624 3.804904 4.139959 7.235313 0.851604 -3.332087 -13.581142 0.000000 -0.000000 0.000000 -2.870532 2.314464 3.018887 1.676159 -2.050914 3.701539 2.184820 -0.988663 4.353881 2.964397 5.337325 -3.022240 2.084966 0.515867 1.985439 -23.714746 4.731453 2.988792 -64.194310 -5.023863 8.357626 11.892656 -24.819072 5.066396 -0.847417 -2.386956 -10.337867 23.175182 -2.363602 2.528368 62.469582 2.427517 9.787590 -14.507963 21.253264 -4.210836 7.529701 0.366790 -12.191378 
1.160865 1.152838 0.985506 -86.255881 2.325813 85.213876 -0.623609 -2.125263 7.178169 -2.636606 -17.473919 4.429197 6.174869 7.880032 -18.742404 0.000000 -0.000000 0.000000 3.865462 -2.119720 4.676431 3.808702 4.136013 7.081448 1.055949 -3.450396 -13.460756 0.000000 -0.000000 0.000000 -2.733700 2.185489 2.818558 1.587628 -2.015610 3.688009 2.145556 -0.990346 4.512098 3.010552 5.403094 -3.124065 2.125461 0.551124 2.249859 -23.711995 4.483360 2.836032 -64.566517 -5.432499 8.710886 11.945800 -25.128057 5.185819 -0.874270 -2.548982 -10.621080 23.034848 -2.197344 2.453044 62.763471 2.684878 10.030375 -14.935636 21.065517 -4.034709 7.261719 -0.144279 -12.013927 
1.160983 1.153043 0.985381 -86.362929 2.347646 85.321815 -0.606719 -2.288835 7.078561 -2.637542 -17.279313 4.407496 6.255134 8.053387 -18.740169 0.000000 -0.000000 0.000000 3.935657 -1.972845 4.504988 3.803863 4.159658 7.142502 0.945208 -3.575055 -13.525471 0.000000 -0.000000 0.000000 -2.701504 2.169440 2.642421 1.603046 -2.016157 3.732269 2.100269 -1.032956 4.479336 3.045725 5.323368 -3.034726 2.190201 0.531795 2.251561 -23.746670 4.249410 2.942080 -64.791669 -5.631737 8.929792 11.875631 -25.831525 5.377372 -1.112158 -2.394730 -10.750240 22.924806 -2.023896 2.534385 62.943905 2.757598 10.166662 -15.400251 21.468045 -3.892735 7.120439 -0.761974 -11.824485 
1.160438 1.153345 0.985262 -86.455096 2.461874 85.323413 -0.469662 -2.354014 7.154248 -2.644400 -17.230141 4.354747 6.441189 8.143184 -18.749180 0.000000 -0.000000 0.000000 4.095479 -1.929842 4.681712 3.827632 4.353921 6.865206 0.714828 -3.745909 -13.378242 0.000000 -0.000000 0.000000 -2.607029 2.142157 2.505043 1.709632 -2.094734 3.827185 2.109947 -1.100981 4.320267 3.314736 4.323861 -3.110364 2.114987 -0.019384 2.219326 -23.949788 4.009391 3.247602 -64.947765 -5.814210 9.020083 11.778098 -26.707946 5.805806 -1.631358 -2.156601 -10.834976 22.602890 -1.809305 2.630993 63.345186 2.568297 10.303184 -16.125823 22.056300 -3.302909 6.921175 -1.645818 -11.298715 
1.159889 1.153240 0.985235 -86.549720 2.433515 85.205957 -0.523264 -2.255434 7.324874 -2.613555 -17.243443 4.342349 6.517692 8.152377 -18.737552 0.000000 -0.000000 0.000000 4.031778 -2.028570 4.862864 3.842675 4.544085 6.859102 0.745765 -3.741083 -13.396644 0.000000 -0.000000 0.000000 -2.573931 2.125910 2.503386 1.718958 -2.161090 3.938701 2.079232 -1.112598 4.248304 3.501300 3.821530 -3.417044 1.940482 -0.359634 2.389659 -24.114527 3.927938 3.249021 -64.876856 -5.901197 9.070488 11.486610 -27.060296 6.178776 -1.727172 -1.987561 -10.672192 22.478965 -1.745525 2.632946 63.411477 2.419094 10.333335 -16.395715 22.474520 -3.168194 6.704675 -2.024218 -10.972795 
1.159748 1.153377 0.985014 -86.706681 2.452540 85.258032 -0.503949 -2.233230 7.265071 -2.587752 -17.161140 4.301711 6.615124 8.246134 -18.684127 0.000000 -0.000000 0.000000 4.075633 -1.949974 4.890046 3.852161 4.691704 6.688087 0.637008 -3.838762 -13.280252 0.000000 -0.000000 0.000000 -2.527688 2.078398 2.367950 1.747306 -2.191591 3.978835 2.053770 -1.094652 4.177471 3.549086 3.708818 -3.398915 1.876169 -0.380339 2.417193 -24.289375 3.973137 3.256150 -64.788780 -5.988517 9.147386 11.212107 -27.587180 6.553057 -1.839291 -1.747049 -10.415747 22.518225 -1.758572 2.721612 63.336103 2.408908 10.434444 -16.763034 22.738196 -2.915104 6.368241 -2.670816 -10.316130 
